<svg width="48" height="46" viewBox="0 0 48 46" fill="none" xmlns="http://www.w3.org/2000/svg">
<mask id="path-1-inside-1_29_30" fill="white">
<path d="M8.43248 0.147576C8.22036 0.230579 7.82379 0.498033 7.54711 0.747042C6.89231 1.33729 6.65252 1.90908 6.58797 2.96968L6.54185 3.78126H5.23225C3.68286 3.78126 3.12029 3.87349 2.36404 4.24239C1.66312 4.58362 1.10977 5.17387 0.731645 5.97623L0.436523 6.59414V43.2077L0.731645 43.8256C1.10055 44.6095 1.70924 45.2182 2.49315 45.5871L3.11106 45.8822L23.8618 45.9099C46.9551 45.9283 44.9907 45.9837 46.0144 45.3104C46.7983 44.7939 47.3055 44.0285 47.5084 43.0693C47.5914 42.6912 47.6099 38.0984 47.5914 24.5781L47.5638 6.59414L47.2686 5.97623C46.8905 5.17387 46.3372 4.58362 45.6362 4.24239C44.88 3.87349 44.3174 3.78126 42.768 3.78126H41.4584L41.4123 2.96968C41.3478 1.90908 41.108 1.33729 40.4532 0.747042C39.8076 0.156799 39.245 -0.0368749 38.3504 0.0184604C36.7365 0.119908 35.7128 1.3004 35.7128 3.04346V3.78126H31.7748L31.7194 3.01579C31.6364 1.91831 31.4427 1.42951 30.8341 0.820822C30.2254 0.212134 29.6905 1.52588e-05 28.7959 1.52588e-05C27.7445 1.52588e-05 26.813 0.590259 26.2873 1.59552C26.1306 1.89064 26.0752 2.18576 26.0476 2.87745L26.0107 3.78126H21.9712V2.96968C21.9712 2.3241 21.9251 2.07509 21.7498 1.69696C21.2518 0.627149 20.3111 1.52588e-05 19.1952 1.52588e-05C18.3098 1.52588e-05 17.7749 0.212134 17.1662 0.820822C16.5575 1.42951 16.3731 1.89986 16.2809 3.01579L16.2255 3.78126H12.2875V3.04346C12.2875 1.77075 11.7895 0.866935 10.8027 0.322805C10.3969 0.101463 10.1755 0.0553506 9.56685 0.0276829C9.06883 0.00923781 8.69993 0.046128 8.43248 0.147576ZM10.111 1.42029C10.277 1.49407 10.5352 1.70619 10.6828 1.89986L10.9502 2.2411L11.0056 6.46502L10.775 6.87082C10.2309 7.78385 8.96738 7.91296 8.29414 7.1106C7.88835 6.63103 7.84223 6.2898 7.87912 4.24239C7.90679 2.44399 7.91601 2.33332 8.11891 2.00131C8.51548 1.37418 9.39162 1.11594 10.111 1.42029ZM19.9514 1.50329C20.1175 1.61396 20.3572 1.85375 20.4771 2.02898C20.6892 2.34254 20.6892 2.37943 20.6616 4.51907C20.6339 6.64025 20.6247 6.69559 20.4126 6.99993C20.1636 7.35039 19.5733 7.64551 19.1306 7.65473C18.4851 7.65473 17.8118 7.11983 17.6366 6.46502C17.5259 6.02234 17.5259 2.90512 17.6458 2.44399C17.904 1.45718 19.1399 0.949938 19.9514 1.50329ZM29.6351 1.50329C30.0778 1.79841 30.3453 2.2411 30.4098 2.79445C30.4375 3.0619 30.4467 4.0026 30.4283 4.88797C30.4006 6.64025 30.336 6.88926 29.8472 7.27661C29.0725 7.8853 27.9382 7.67318 27.4955 6.8247C27.3387 6.5388 27.3203 6.27135 27.3203 4.41762C27.3203 2.39788 27.3295 2.3241 27.5324 2.01975C27.8644 1.53096 28.2886 1.29117 28.842 1.29117C29.1924 1.29117 29.4046 1.34651 29.6351 1.50329ZM39.3004 1.47562C39.5033 1.57707 39.7615 1.80764 39.8722 2.00131C40.0843 2.33332 40.0935 2.44399 40.1212 4.27928C40.1581 6.46502 40.0935 6.78781 39.5401 7.27661C38.8116 7.91296 37.6219 7.6824 37.1792 6.80626C37.0039 6.46502 36.9947 6.29902 37.0224 4.33461C37.0501 2.36099 37.0593 2.21343 37.2437 1.96442C37.7417 1.3004 38.5718 1.0975 39.3004 1.47562ZM6.58797 5.93012C6.66175 7.28583 7.15976 8.12508 8.21113 8.64155C8.65382 8.86289 8.84749 8.89978 9.47462 8.89056C10.3877 8.89056 10.9502 8.63232 11.5774 7.93141C12.1031 7.35039 12.2875 6.78781 12.2875 5.79178V5.07242H16.2255L16.2809 5.92089C16.3362 6.61259 16.4008 6.88926 16.6313 7.35961C17.4798 9.09345 19.7947 9.46235 21.1688 8.08819C21.713 7.54406 21.9066 7.01838 21.9712 5.99467L22.0173 5.11853H25.983L26.0291 5.99467C26.1121 7.35961 26.5917 8.15275 27.6431 8.66921C28.3347 9.01045 29.3861 8.992 30.1055 8.64155C31.1107 8.15275 31.6364 7.26739 31.7194 5.90245L31.7748 5.07242H35.7128V5.79178C35.7128 6.78781 35.8972 7.35039 36.4229 7.93141C37.0501 8.63232 37.6126 8.89056 38.5257 8.89056C39.3834 8.89978 39.8906 8.71533 40.4901 8.16197C41.0895 7.62707 41.357 6.98149 41.4123 5.93934L41.4584 5.07242H42.8141C44.3912 5.07242 44.8984 5.18309 45.4702 5.68111C46.2449 6.34513 46.2726 6.43736 46.3003 9.28712L46.3279 11.8049H1.67235L1.70001 9.28712C1.72768 6.91693 1.7369 6.76015 1.93058 6.40969C2.2257 5.86556 2.71449 5.44132 3.26785 5.24765C3.65519 5.10931 4.04254 5.08164 5.14925 5.07242H6.54185L6.58797 5.93012ZM46.3187 27.8798C46.3187 44.1391 46.3556 43.1062 45.7654 43.8256C45.6086 44.01 45.2766 44.2683 45.0091 44.3974L44.5295 44.6372H3.47074L2.99117 44.3974C2.72372 44.2683 2.3917 44.01 2.23492 43.8256C1.64468 43.1062 1.68157 44.1391 1.68157 27.8798V13.096H46.3187V27.8798Z"/>
<path d="M23.0779 16.1948C22.0634 16.3055 21.2795 16.453 20.5786 16.6467C15.9396 17.9563 12.4535 21.7468 11.4851 26.5333C11.2546 27.6677 11.2546 30.1762 11.4851 31.2552C12.3705 35.4146 14.9067 38.6609 18.6511 40.4317C21.4086 41.732 24.8025 41.9626 27.7814 41.0404C30.7695 40.1181 33.4902 37.9324 35.0672 35.184C36.7918 32.1683 37.1884 28.3409 36.1186 25.0208C35.7773 23.951 34.8735 22.1895 34.2003 21.2949C33.4625 20.3265 32.1068 19.0169 31.1937 18.399C29.6997 17.403 27.9013 16.6559 26.2781 16.3793C25.4665 16.2317 23.6312 16.1302 23.0779 16.1948ZM26.3519 17.7165C27.4033 17.9286 28.7866 18.4543 29.6997 18.9892C31.6641 20.1328 33.4533 22.088 34.3755 24.0985C35.8235 27.2434 35.7681 30.8956 34.2372 33.9667C32.5956 37.2407 29.5152 39.5371 25.9369 40.155C20.6339 41.068 15.4047 38.1353 13.3942 33.1274C12.2322 30.2223 12.3152 26.9575 13.6248 24.0985C14.5655 22.0603 16.3639 20.0959 18.3559 18.9616C20.763 17.5874 23.5575 17.1539 26.3519 17.7165Z"/>
<path d="M23.7511 19.3674C23.3453 19.5334 23.2347 20.0775 23.539 20.3818C23.9171 20.76 24.6457 20.4925 24.6457 19.976C24.6457 19.5426 24.1569 19.2106 23.7511 19.3674Z"/>
<path d="M19.2874 20.5847C19.1399 20.6308 18.9923 20.7876 18.9277 20.9444C18.8263 21.1842 18.8355 21.258 18.9923 21.4701C19.3704 21.9866 20.1267 21.7744 20.1267 21.1658C20.1267 20.7139 19.7209 20.4372 19.2874 20.5847Z"/>
<path d="M28.2886 20.5663C27.6154 20.8153 27.7629 21.7652 28.4731 21.7652C28.8328 21.7652 29.0725 21.5254 29.0725 21.1473C29.0725 20.7323 28.6575 20.428 28.2886 20.5663Z"/>
<path d="M23.5851 22.5491L23.3546 22.7705V25.943C23.3546 28.3317 23.3822 29.1433 23.4745 29.2632C23.6589 29.5122 27.7537 31.8178 28.0027 31.8178C28.4915 31.8178 28.7682 31.2552 28.4731 30.8402C28.4085 30.7295 27.5139 30.1762 26.4995 29.5952L24.6549 28.5438L24.6457 25.6571V22.7705L24.4152 22.5491C24.1293 22.254 23.871 22.254 23.5851 22.5491Z"/>
<path d="M15.8105 24.0063C15.5338 24.3014 15.5523 24.6611 15.8474 24.8917C16.1702 25.1407 16.3915 25.1315 16.6682 24.8548C16.9541 24.5781 16.9633 24.2553 16.6867 23.9971C16.41 23.7389 16.0595 23.7389 15.8105 24.0063Z"/>
<path d="M31.286 23.9786C30.9078 24.3568 31.2214 25.0853 31.7655 25.0853C31.9869 25.0853 32.3927 24.6796 32.3927 24.4582C32.3927 23.9141 31.6641 23.6005 31.286 23.9786Z"/>
<path d="M14.8053 28.3132C14.3995 28.4792 14.2888 29.0234 14.5931 29.3277C14.9713 29.7058 15.6998 29.4384 15.6998 28.9219C15.6998 28.4885 15.2111 28.1565 14.8053 28.3132Z"/>
<path d="M32.697 28.3132C32.2912 28.4792 32.1805 29.0234 32.4849 29.3277C32.863 29.7058 33.5916 29.4384 33.5916 28.9219C33.5916 28.4885 33.1028 28.1565 32.697 28.3132Z"/>
<path d="M15.7921 32.9245C15.6906 33.026 15.6076 33.2104 15.6076 33.3395C15.6076 33.6254 15.9857 34.0312 16.2532 34.0312C16.5114 34.0312 16.8988 33.6347 16.8988 33.358C16.8988 33.0721 16.5391 32.7401 16.2255 32.7401C16.0872 32.7401 15.8935 32.8231 15.7921 32.9245Z"/>
<path d="M31.286 32.9245C30.9078 33.3026 31.2214 34.0312 31.7655 34.0312C31.9869 34.0312 32.3927 33.6254 32.3927 33.4041C32.3927 32.86 31.6641 32.5464 31.286 32.9245Z"/>
<path d="M19.2413 36.0786C18.6418 36.3645 18.8632 37.2591 19.5272 37.2591C20.1175 37.2591 20.3572 36.5305 19.8869 36.1616C19.6102 35.9495 19.5272 35.9403 19.2413 36.0786Z"/>
<path d="M28.1872 36.0786C27.5877 36.3645 27.8091 37.2591 28.4731 37.2591C29.0633 37.2591 29.3031 36.5305 28.8328 36.1616C28.5561 35.9495 28.4731 35.9403 28.1872 36.0786Z"/>
<path d="M23.7511 37.2591C23.3453 37.4251 23.2347 37.9692 23.539 38.2736C23.9171 38.6517 24.6457 38.3843 24.6457 37.8678C24.6457 37.4343 24.1569 37.1023 23.7511 37.2591Z"/>
</mask>
<path d="M8.43248 0.147576C8.22036 0.230579 7.82379 0.498033 7.54711 0.747042C6.89231 1.33729 6.65252 1.90908 6.58797 2.96968L6.54185 3.78126H5.23225C3.68286 3.78126 3.12029 3.87349 2.36404 4.24239C1.66312 4.58362 1.10977 5.17387 0.731645 5.97623L0.436523 6.59414V43.2077L0.731645 43.8256C1.10055 44.6095 1.70924 45.2182 2.49315 45.5871L3.11106 45.8822L23.8618 45.9099C46.9551 45.9283 44.9907 45.9837 46.0144 45.3104C46.7983 44.7939 47.3055 44.0285 47.5084 43.0693C47.5914 42.6912 47.6099 38.0984 47.5914 24.5781L47.5638 6.59414L47.2686 5.97623C46.8905 5.17387 46.3372 4.58362 45.6362 4.24239C44.88 3.87349 44.3174 3.78126 42.768 3.78126H41.4584L41.4123 2.96968C41.3478 1.90908 41.108 1.33729 40.4532 0.747042C39.8076 0.156799 39.245 -0.0368749 38.3504 0.0184604C36.7365 0.119908 35.7128 1.3004 35.7128 3.04346V3.78126H31.7748L31.7194 3.01579C31.6364 1.91831 31.4427 1.42951 30.8341 0.820822C30.2254 0.212134 29.6905 1.52588e-05 28.7959 1.52588e-05C27.7445 1.52588e-05 26.813 0.590259 26.2873 1.59552C26.1306 1.89064 26.0752 2.18576 26.0476 2.87745L26.0107 3.78126H21.9712V2.96968C21.9712 2.3241 21.9251 2.07509 21.7498 1.69696C21.2518 0.627149 20.3111 1.52588e-05 19.1952 1.52588e-05C18.3098 1.52588e-05 17.7749 0.212134 17.1662 0.820822C16.5575 1.42951 16.3731 1.89986 16.2809 3.01579L16.2255 3.78126H12.2875V3.04346C12.2875 1.77075 11.7895 0.866935 10.8027 0.322805C10.3969 0.101463 10.1755 0.0553506 9.56685 0.0276829C9.06883 0.00923781 8.69993 0.046128 8.43248 0.147576ZM10.111 1.42029C10.277 1.49407 10.5352 1.70619 10.6828 1.89986L10.9502 2.2411L11.0056 6.46502L10.775 6.87082C10.2309 7.78385 8.96738 7.91296 8.29414 7.1106C7.88835 6.63103 7.84223 6.2898 7.87912 4.24239C7.90679 2.44399 7.91601 2.33332 8.11891 2.00131C8.51548 1.37418 9.39162 1.11594 10.111 1.42029ZM19.9514 1.50329C20.1175 1.61396 20.3572 1.85375 20.4771 2.02898C20.6892 2.34254 20.6892 2.37943 20.6616 4.51907C20.6339 6.64025 20.6247 6.69559 20.4126 6.99993C20.1636 7.35039 19.5733 7.64551 19.1306 7.65473C18.4851 7.65473 17.8118 7.11983 17.6366 6.46502C17.5259 6.02234 17.5259 2.90512 17.6458 2.44399C17.904 1.45718 19.1399 0.949938 19.9514 1.50329ZM29.6351 1.50329C30.0778 1.79841 30.3453 2.2411 30.4098 2.79445C30.4375 3.0619 30.4467 4.0026 30.4283 4.88797C30.4006 6.64025 30.336 6.88926 29.8472 7.27661C29.0725 7.8853 27.9382 7.67318 27.4955 6.8247C27.3387 6.5388 27.3203 6.27135 27.3203 4.41762C27.3203 2.39788 27.3295 2.3241 27.5324 2.01975C27.8644 1.53096 28.2886 1.29117 28.842 1.29117C29.1924 1.29117 29.4046 1.34651 29.6351 1.50329ZM39.3004 1.47562C39.5033 1.57707 39.7615 1.80764 39.8722 2.00131C40.0843 2.33332 40.0935 2.44399 40.1212 4.27928C40.1581 6.46502 40.0935 6.78781 39.5401 7.27661C38.8116 7.91296 37.6219 7.6824 37.1792 6.80626C37.0039 6.46502 36.9947 6.29902 37.0224 4.33461C37.0501 2.36099 37.0593 2.21343 37.2437 1.96442C37.7417 1.3004 38.5718 1.0975 39.3004 1.47562ZM6.58797 5.93012C6.66175 7.28583 7.15976 8.12508 8.21113 8.64155C8.65382 8.86289 8.84749 8.89978 9.47462 8.89056C10.3877 8.89056 10.9502 8.63232 11.5774 7.93141C12.1031 7.35039 12.2875 6.78781 12.2875 5.79178V5.07242H16.2255L16.2809 5.92089C16.3362 6.61259 16.4008 6.88926 16.6313 7.35961C17.4798 9.09345 19.7947 9.46235 21.1688 8.08819C21.713 7.54406 21.9066 7.01838 21.9712 5.99467L22.0173 5.11853H25.983L26.0291 5.99467C26.1121 7.35961 26.5917 8.15275 27.6431 8.66921C28.3347 9.01045 29.3861 8.992 30.1055 8.64155C31.1107 8.15275 31.6364 7.26739 31.7194 5.90245L31.7748 5.07242H35.7128V5.79178C35.7128 6.78781 35.8972 7.35039 36.4229 7.93141C37.0501 8.63232 37.6126 8.89056 38.5257 8.89056C39.3834 8.89978 39.8906 8.71533 40.4901 8.16197C41.0895 7.62707 41.357 6.98149 41.4123 5.93934L41.4584 5.07242H42.8141C44.3912 5.07242 44.8984 5.18309 45.4702 5.68111C46.2449 6.34513 46.2726 6.43736 46.3003 9.28712L46.3279 11.8049H1.67235L1.70001 9.28712C1.72768 6.91693 1.7369 6.76015 1.93058 6.40969C2.2257 5.86556 2.71449 5.44132 3.26785 5.24765C3.65519 5.10931 4.04254 5.08164 5.14925 5.07242H6.54185L6.58797 5.93012ZM46.3187 27.8798C46.3187 44.1391 46.3556 43.1062 45.7654 43.8256C45.6086 44.01 45.2766 44.2683 45.0091 44.3974L44.5295 44.6372H3.47074L2.99117 44.3974C2.72372 44.2683 2.3917 44.01 2.23492 43.8256C1.64468 43.1062 1.68157 44.1391 1.68157 27.8798V13.096H46.3187V27.8798Z" stroke="#9EA3BA" stroke-width="2" mask="url(#path-1-inside-1_29_30)"/>
<path d="M23.0779 16.1948C22.0634 16.3055 21.2795 16.453 20.5786 16.6467C15.9396 17.9563 12.4535 21.7468 11.4851 26.5333C11.2546 27.6677 11.2546 30.1762 11.4851 31.2552C12.3705 35.4146 14.9067 38.6609 18.6511 40.4317C21.4086 41.732 24.8025 41.9626 27.7814 41.0404C30.7695 40.1181 33.4902 37.9324 35.0672 35.184C36.7918 32.1683 37.1884 28.3409 36.1186 25.0208C35.7773 23.951 34.8735 22.1895 34.2003 21.2949C33.4625 20.3265 32.1068 19.0169 31.1937 18.399C29.6997 17.403 27.9013 16.6559 26.2781 16.3793C25.4665 16.2317 23.6312 16.1302 23.0779 16.1948ZM26.3519 17.7165C27.4033 17.9286 28.7866 18.4543 29.6997 18.9892C31.6641 20.1328 33.4533 22.088 34.3755 24.0985C35.8235 27.2434 35.7681 30.8956 34.2372 33.9667C32.5956 37.2407 29.5152 39.5371 25.9369 40.155C20.6339 41.068 15.4047 38.1353 13.3942 33.1274C12.2322 30.2223 12.3152 26.9575 13.6248 24.0985C14.5655 22.0603 16.3639 20.0959 18.3559 18.9616C20.763 17.5874 23.5575 17.1539 26.3519 17.7165Z" stroke="#9EA3BA" stroke-width="2" mask="url(#path-1-inside-1_29_30)"/>
<path d="M23.7511 19.3674C23.3453 19.5334 23.2347 20.0775 23.539 20.3818C23.9171 20.76 24.6457 20.4925 24.6457 19.976C24.6457 19.5426 24.1569 19.2106 23.7511 19.3674Z" stroke="#9EA3BA" stroke-width="2" mask="url(#path-1-inside-1_29_30)"/>
<path d="M19.2874 20.5847C19.1399 20.6308 18.9923 20.7876 18.9277 20.9444C18.8263 21.1842 18.8355 21.258 18.9923 21.4701C19.3704 21.9866 20.1267 21.7744 20.1267 21.1658C20.1267 20.7139 19.7209 20.4372 19.2874 20.5847Z" stroke="#9EA3BA" stroke-width="2" mask="url(#path-1-inside-1_29_30)"/>
<path d="M28.2886 20.5663C27.6154 20.8153 27.7629 21.7652 28.4731 21.7652C28.8328 21.7652 29.0725 21.5254 29.0725 21.1473C29.0725 20.7323 28.6575 20.428 28.2886 20.5663Z" stroke="#9EA3BA" stroke-width="2" mask="url(#path-1-inside-1_29_30)"/>
<path d="M23.5851 22.5491L23.3546 22.7705V25.943C23.3546 28.3317 23.3822 29.1433 23.4745 29.2632C23.6589 29.5122 27.7537 31.8178 28.0027 31.8178C28.4915 31.8178 28.7682 31.2552 28.4731 30.8402C28.4085 30.7295 27.5139 30.1762 26.4995 29.5952L24.6549 28.5438L24.6457 25.6571V22.7705L24.4152 22.5491C24.1293 22.254 23.871 22.254 23.5851 22.5491Z" stroke="#9EA3BA" stroke-width="2" mask="url(#path-1-inside-1_29_30)"/>
<path d="M15.8105 24.0063C15.5338 24.3014 15.5523 24.6611 15.8474 24.8917C16.1702 25.1407 16.3915 25.1315 16.6682 24.8548C16.9541 24.5781 16.9633 24.2553 16.6867 23.9971C16.41 23.7389 16.0595 23.7389 15.8105 24.0063Z" stroke="#9EA3BA" stroke-width="2" mask="url(#path-1-inside-1_29_30)"/>
<path d="M31.286 23.9786C30.9078 24.3568 31.2214 25.0853 31.7655 25.0853C31.9869 25.0853 32.3927 24.6796 32.3927 24.4582C32.3927 23.9141 31.6641 23.6005 31.286 23.9786Z" stroke="#9EA3BA" stroke-width="2" mask="url(#path-1-inside-1_29_30)"/>
<path d="M14.8053 28.3132C14.3995 28.4792 14.2888 29.0234 14.5931 29.3277C14.9713 29.7058 15.6998 29.4384 15.6998 28.9219C15.6998 28.4885 15.2111 28.1565 14.8053 28.3132Z" stroke="#9EA3BA" stroke-width="2" mask="url(#path-1-inside-1_29_30)"/>
<path d="M32.697 28.3132C32.2912 28.4792 32.1805 29.0234 32.4849 29.3277C32.863 29.7058 33.5916 29.4384 33.5916 28.9219C33.5916 28.4885 33.1028 28.1565 32.697 28.3132Z" stroke="#9EA3BA" stroke-width="2" mask="url(#path-1-inside-1_29_30)"/>
<path d="M15.7921 32.9245C15.6906 33.026 15.6076 33.2104 15.6076 33.3395C15.6076 33.6254 15.9857 34.0312 16.2532 34.0312C16.5114 34.0312 16.8988 33.6347 16.8988 33.358C16.8988 33.0721 16.5391 32.7401 16.2255 32.7401C16.0872 32.7401 15.8935 32.8231 15.7921 32.9245Z" stroke="#9EA3BA" stroke-width="2" mask="url(#path-1-inside-1_29_30)"/>
<path d="M31.286 32.9245C30.9078 33.3026 31.2214 34.0312 31.7655 34.0312C31.9869 34.0312 32.3927 33.6254 32.3927 33.4041C32.3927 32.86 31.6641 32.5464 31.286 32.9245Z" stroke="#9EA3BA" stroke-width="2" mask="url(#path-1-inside-1_29_30)"/>
<path d="M19.2413 36.0786C18.6418 36.3645 18.8632 37.2591 19.5272 37.2591C20.1175 37.2591 20.3572 36.5305 19.8869 36.1616C19.6102 35.9495 19.5272 35.9403 19.2413 36.0786Z" stroke="#9EA3BA" stroke-width="2" mask="url(#path-1-inside-1_29_30)"/>
<path d="M28.1872 36.0786C27.5877 36.3645 27.8091 37.2591 28.4731 37.2591C29.0633 37.2591 29.3031 36.5305 28.8328 36.1616C28.5561 35.9495 28.4731 35.9403 28.1872 36.0786Z" stroke="#9EA3BA" stroke-width="2" mask="url(#path-1-inside-1_29_30)"/>
<path d="M23.7511 37.2591C23.3453 37.4251 23.2347 37.9692 23.539 38.2736C23.9171 38.6517 24.6457 38.3843 24.6457 37.8678C24.6457 37.4343 24.1569 37.1023 23.7511 37.2591Z" stroke="#9EA3BA" stroke-width="2" mask="url(#path-1-inside-1_29_30)"/>
</svg>
