<svg width="48" height="44" viewBox="0 0 48 44" fill="none" xmlns="http://www.w3.org/2000/svg">
<path d="M3.61961 0.0767311C3.51943 0.110822 2.82729 0.715936 2.08961 1.4148C0.969431 2.47162 0.732646 2.73582 0.696217 2.9915C0.641574 3.27275 0.759967 3.51139 1.93479 5.50571C2.64515 6.71594 3.28265 7.76423 3.36461 7.84946C3.43747 7.92616 4.07497 8.31821 4.78532 8.71877L6.07854 9.44321L18.8285 21.3835L15.6501 24.358L15.2585 24.0256C14.9307 23.7358 14.8123 23.6847 14.4844 23.6847H14.0928L8.28247 29.1222C5.08586 32.1051 2.28997 34.7898 2.06229 35.071C0.778181 36.7415 0.596039 38.7358 1.5614 40.6108C2.43568 42.3239 4.30265 43.483 6.37907 43.6023C7.40818 43.662 8.30068 43.483 9.31157 43.0228C10.0857 42.6733 10.1039 42.6478 16.1237 37.0313C20.395 33.0512 22.18 31.321 22.2346 31.1421C22.3257 30.8097 22.2164 30.5284 21.8248 30.162L21.5151 29.8551L22.2437 29.1818L22.9723 28.5L26.2782 31.5938C29.3473 34.4659 29.6114 34.696 29.9575 34.7387C30.2762 34.7813 30.3673 34.7472 30.6314 34.5256C30.8864 34.3125 30.941 34.2103 30.941 33.9205C30.941 33.5796 30.8955 33.5284 29.1651 31.9091L27.3893 30.2472L32.9901 25.0057L38.8551 30.5029C45.303 36.5455 45.1664 36.3921 45.3941 37.662C45.8312 40.0654 43.5089 42.2728 40.9589 41.8637C39.8114 41.6762 39.3378 41.3949 37.6894 39.8864C36.3234 38.625 36.1685 38.5142 35.868 38.5142C35.4035 38.5142 34.9755 38.8807 34.9755 39.2983C34.9755 39.4602 35.021 39.6733 35.0666 39.7585C35.1212 39.8523 35.8316 40.5341 36.6512 41.2841C38.7276 43.1932 39.5473 43.5767 41.5509 43.5767C42.4525 43.5767 42.6984 43.5426 43.3176 43.3466C44.2466 43.0398 44.7292 42.7671 45.4396 42.1534C46.5507 41.1733 47.1609 39.9546 47.261 38.5142C47.3248 37.5682 47.1335 36.7245 46.6417 35.787L46.2684 35.0625L31.1232 20.8722L32.8991 19.2017C34.4655 17.7358 36.0775 16.4404 36.3325 16.4404C36.378 16.4404 36.5146 16.5341 36.633 16.6534L36.8516 16.875L36.6968 17.412C36.4144 18.4091 36.3962 18.358 37.7714 19.679C39.2559 21.0853 39.6748 21.3324 40.5491 21.3324C41.5235 21.3239 41.7421 21.179 44.5198 18.554C46.7784 16.4233 47.006 16.1847 47.1517 15.7671C47.343 15.2131 47.2975 14.5739 47.0334 14.0881C46.9332 13.9006 46.2592 13.2103 45.5398 12.537C44.0644 11.1818 44.0735 11.1818 43.0353 11.4631L42.5253 11.5995L42.2157 11.3012L41.8969 11.0029L42.1337 10.6279C42.2794 10.3892 42.3705 10.1165 42.3705 9.91196C42.3705 9.58809 42.2703 9.48582 38.2996 5.76139C34.2834 2.01139 33.5821 1.42332 32.4892 0.911958C29.8482 -0.33236 26.6698 -0.289746 24.0743 1.02275C23.0725 1.52559 22.5625 1.90912 20.9869 3.34946C18.865 5.29264 18.8741 5.21594 20.4769 6.73298C21.1144 7.32957 21.7519 7.8665 21.8885 7.91764C22.2255 8.054 22.4987 7.98582 22.9359 7.65344C23.8466 6.98014 24.8484 6.80116 25.841 7.15912C26.3146 7.32105 26.5605 7.50855 27.6898 8.54832C28.4093 9.21309 29.0741 9.89491 29.1743 10.0654C29.3837 10.4404 29.4019 11.1307 29.2198 11.5228C29.1469 11.6762 27.8355 12.9631 26.3055 14.3949L23.5187 16.9943L10.7596 5.06253L9.9764 3.84378C9.53015 3.15344 9.06568 2.53128 8.91086 2.429C8.33711 2.03696 4.22979 -0.00849617 4.02032 2.65562e-05C3.90193 2.65562e-05 3.71979 0.0341175 3.61961 0.0767311ZM30.2125 1.91764C30.9866 2.11366 31.9975 2.56537 32.6532 3.00855C32.9628 3.21309 34.8298 4.90059 36.7969 6.7415L40.376 10.0995L40.1484 10.483C40.0026 10.7046 39.9116 10.9943 39.9116 11.1904C39.9116 11.5057 39.9753 11.5909 40.8951 12.4517C41.9971 13.483 42.0153 13.4915 43.0171 13.2273L43.5726 13.0824L44.5198 13.9858C45.1846 14.608 45.4669 14.9404 45.4669 15.0767C45.4669 15.2301 44.875 15.8353 43.1719 17.4375C41.906 18.6222 40.8041 19.6193 40.713 19.6449C40.458 19.7216 40.0937 19.4745 39.2467 18.6733L38.4453 17.9148L38.5819 17.4034C38.8551 16.4063 38.8369 16.3551 37.8534 15.4091C36.9426 14.5398 36.6057 14.3438 36.2323 14.429C36.1048 14.4546 35.5857 14.7699 35.0757 15.1279L34.1468 15.7756L30.7316 12.5796L30.9228 12.1875C31.0868 11.8637 31.1141 11.6335 31.1232 10.858C31.1232 9.46025 30.9684 9.20457 29.0103 7.39775C27.8628 6.34094 27.3528 5.92332 26.9703 5.75287C25.5587 5.11366 24.1107 5.11366 22.7264 5.75287L22.2255 5.97446L21.5151 5.32673L22.5351 4.35514C23.0998 3.81821 23.7737 3.23866 24.0287 3.05969C24.8939 2.44605 26.0778 1.9773 27.2344 1.78128C27.8446 1.67048 29.575 1.75571 30.2125 1.91764ZM5.85086 2.76991C6.72515 3.21309 7.52657 3.63071 7.62675 3.69037C7.79979 3.80116 8.76514 5.19037 8.76514 5.33525C8.76514 5.48866 6.4064 7.6023 6.288 7.55116C6.22425 7.5256 5.84175 7.31253 5.44104 7.09094L4.71247 6.67332L4.05675 5.57389C3.69247 4.96025 3.23711 4.18469 3.05497 3.8523L2.7089 3.23866L3.39193 2.59094C3.76532 2.2415 4.1114 1.95173 4.16604 1.95173C4.21157 1.95173 4.97657 2.31821 5.85086 2.76991ZM24.5843 22.3807L23.5187 23.3864L7.85443 8.7273L9.99461 6.72446L25.6589 21.3835L24.5843 22.3807ZM31.1687 15.375L32.7625 16.8665L31.2598 18.2728C29.9393 19.5171 29.7298 19.679 29.5294 19.6364C28.5823 19.4318 27.8719 19.5256 27.2618 19.9347L26.9157 20.1733L24.8393 18.2301L27.1616 16.0568C28.4366 14.8637 29.5021 13.8835 29.5294 13.8835C29.5568 13.8835 30.2944 14.5568 31.1687 15.375ZM30.2944 22.4915L31.6696 23.7699L28.8646 26.3864L26.0687 29.0114L24.7026 27.7245C23.5734 26.6676 23.3366 26.4034 23.3366 26.1989C23.3366 25.9858 23.7191 25.5938 25.8684 23.5824C28.0176 21.571 28.4366 21.2131 28.6643 21.2131C28.8828 21.2131 29.1651 21.4347 30.2944 22.4915ZM21.2146 23.6165L22.2346 24.5625L22.0069 24.8353C21.5516 25.3978 21.4059 26.1733 21.6244 26.8551L21.7246 27.1875L20.9596 27.912L20.1946 28.6279L16.9616 25.6023L18.528 24.1364C19.3932 23.3267 20.1218 22.662 20.1491 22.662C20.1673 22.662 20.65 23.0881 21.2146 23.6165ZM17.3259 28.3296L20.1035 30.929L14.5937 36.0767C8.77425 41.5142 8.76515 41.5228 7.62675 41.804C4.97657 42.4688 2.3264 40.1676 2.82729 37.6449C3.07318 36.3921 2.99122 36.4858 8.98372 30.8608C11.9891 28.0398 14.4753 25.7301 14.5026 25.7301C14.53 25.7301 15.7959 26.8978 17.3259 28.3296Z" fill="#9EA3BA"/>
<path d="M32.3435 36.0341C31.8426 36.5029 32.0703 37.2955 32.7534 37.4574C33.6185 37.662 34.2105 36.5881 33.5457 36.0256C33.1541 35.6932 32.7078 35.7018 32.3435 36.0341Z" fill="#9EA3BA"/>
</svg>
