<svg width="46" height="44" viewBox="0 0 46 44" fill="none" xmlns="http://www.w3.org/2000/svg">
<path d="M0.671603 0.228659L0.438477 0.448171V9.79573L0.671603 10.0152L0.895403 10.2439H28.3296L28.5534 10.0152L28.7865 9.79573V0.448171L28.5534 0.228659L28.3296 0H0.895403L0.671603 0.228659ZM3.42248 4.39024H4.91449V1.46341H6.40649V4.39024H7.89849V1.46341H9.39049V4.39024H10.8825V1.46341H12.3745V4.39024H13.8665V1.46341H15.3585V4.39024H16.8505V1.46341H18.3425V4.39024H19.8345V1.46341H21.3265V4.39024H22.8185V1.46341H24.3105V4.39024H25.8025V1.46341H27.2945V8.78049H1.93048V1.46341H3.42248V4.39024Z" fill="#9EA3BA"/>
<path d="M33.2625 0.1189C32.8056 0.265242 32.0223 1.05183 31.8824 1.51829C31.8078 1.78353 31.7705 2.79878 31.7705 4.85671V7.82012L31.3136 8.06707C30.2972 8.63414 29.3087 9.91463 29.001 11.0854L28.8425 11.7073H9.84742L9.62362 11.936L9.39049 12.1555V43.4543L9.62362 43.6738L9.84742 43.9024H44.7416L44.9654 43.6738L45.1986 43.4543V12.1555L44.9654 11.936L44.7416 11.7073H39.1746L39.0161 11.0762C38.7084 9.93293 37.925 8.87195 36.9086 8.2317L36.2559 7.82012V4.85671C36.2465 2.81707 36.2092 1.78353 36.1346 1.51829C35.9854 1.01524 35.2115 0.256096 34.6986 0.109754C34.2417 -0.0182947 33.7101 -0.0182947 33.2625 0.1189ZM34.5214 1.69207L34.7545 1.91158V7.3628H33.2625V1.91158L33.4957 1.69207C33.6355 1.54573 33.8314 1.46341 34.0085 1.46341C34.1857 1.46341 34.3815 1.54573 34.5214 1.69207ZM35.5378 9.12805C36.3864 9.51219 36.9273 10.0427 37.3469 10.8659C37.6733 11.5244 37.6919 11.6067 37.6919 12.439C37.6919 13.2713 37.6733 13.3537 37.3469 14.0122C36.9273 14.8445 36.3864 15.3567 35.5192 15.7591C34.9504 16.0244 34.8105 16.0518 34.0085 16.0518C33.2066 16.0518 33.0667 16.0244 32.4979 15.7591C31.6307 15.3567 31.0898 14.8445 30.6702 14.0122C30.3438 13.3537 30.3252 13.2713 30.3252 12.4482C30.3252 11.6524 30.3531 11.5152 30.6236 10.9573C30.9966 10.1799 31.5281 9.6128 32.2275 9.2561C32.9548 8.87195 33.3651 8.78049 34.2137 8.81707C34.7825 8.84451 35.0716 8.91768 35.5378 9.12805ZM28.9544 13.6463C29.0103 13.9116 29.2062 14.4055 29.374 14.753L29.6817 15.3659L27.2293 24.3567C25.6347 30.1738 24.7674 33.503 24.7674 33.7957C24.7581 34.3719 24.9726 34.8841 25.3829 35.3049L25.6999 35.625L25.3829 36.7683C25.2057 37.3994 25.0565 38.003 25.0565 38.122C25.0565 38.4238 25.4575 38.7805 25.7839 38.7805C26.2781 38.7805 26.4366 38.5518 26.791 37.2713C26.9682 36.6128 27.1453 36.0549 27.1826 36.0274C27.2199 36 27.4344 35.9268 27.6489 35.8628C28.1151 35.7348 28.8052 35.1585 28.973 34.7561C29.0383 34.6098 29.6444 32.4604 30.3252 29.9817L31.5561 25.4726L32.1062 25.4909C32.4046 25.5091 32.7963 25.5366 32.9641 25.564C33.2625 25.6189 33.2625 25.628 33.2625 26.122C33.2625 26.7256 33.533 27.0732 34.0085 27.0732C34.4841 27.0732 34.7545 26.7256 34.7545 26.122C34.7545 25.628 34.7545 25.6189 35.0623 25.5732C35.2208 25.5457 35.6124 25.5091 35.9108 25.5L36.461 25.4726L37.6919 29.9726C38.3727 32.4512 38.9788 34.6006 39.0441 34.7561C39.2119 35.1585 39.902 35.7348 40.3682 35.8628C40.5827 35.9268 40.7972 36 40.8345 36.0274C40.8718 36.0549 41.0489 36.6128 41.2261 37.2713C41.5805 38.5518 41.739 38.7805 42.2332 38.7805C42.5596 38.7805 42.9606 38.4238 42.9606 38.122C42.9606 38.003 42.8114 37.3994 42.6342 36.7683L42.3171 35.625L42.6342 35.3049C43.0538 34.8841 43.2403 34.4177 43.2403 33.8232C43.2403 33.4756 42.5316 30.75 40.7878 24.3476L38.326 15.3659L38.6337 14.7713C38.8016 14.4512 38.9881 13.9573 39.0534 13.6738L39.1653 13.1707H43.7066V42.439H10.8825V13.1707H28.8332L28.9544 13.6463ZM32.1249 17.1951C32.2181 17.1951 32.2368 17.2591 32.1902 17.4421C32.0316 18.1098 27.9193 33.1463 27.7515 33.6768C27.6023 34.1799 27.5183 34.3262 27.2945 34.436C26.7817 34.6921 26.2501 34.3811 26.2501 33.8232C26.2595 33.5945 30.6702 17.2317 30.8847 16.6738C30.9126 16.6006 31.0991 16.6646 31.4535 16.875C31.7519 17.0488 32.0503 17.1951 32.1249 17.1951ZM39.4543 25.125C40.7319 29.7988 41.767 33.7317 41.767 33.878C41.7576 34.3902 41.2168 34.6829 40.7226 34.436C40.4988 34.3262 40.4148 34.1799 40.2656 33.6768C39.8833 32.4055 35.771 17.2683 35.7989 17.2591C35.8176 17.25 36.0787 17.1128 36.3864 16.9482C36.6941 16.7927 36.9925 16.6555 37.0392 16.6555C37.0951 16.6463 38.1768 20.4604 39.4543 25.125ZM35.1742 20.7622C36.1533 24.3293 36.144 24.0274 35.2021 24.0457L34.7545 24.0549V23.5976C34.7545 23.0305 34.4655 22.6829 34.0085 22.6829C33.5516 22.6829 33.2625 23.0305 33.2625 23.5976V24.0549L32.8243 24.0457C31.8731 24.0274 31.8731 24.3201 32.8149 20.8537C33.2719 19.1707 33.6635 17.7348 33.6822 17.6707C33.7101 17.5976 33.8407 17.561 34.0179 17.5793L34.3163 17.6067L35.1742 20.7622Z" fill="#9EA3BA"/>
<path d="M33.2625 10.3628C32.8056 10.5091 32.0223 11.2957 31.8824 11.7622C31.6213 12.6219 31.8078 13.3079 32.4699 13.9482C32.9455 14.4238 33.4211 14.6341 34.0085 14.6341C35.1648 14.6341 36.2465 13.5732 36.2465 12.439C36.2465 11.8628 36.0321 11.3963 35.5472 10.9299C34.8944 10.2805 34.1298 10.0976 33.2625 10.3628ZM34.5214 11.936C34.6706 12.0732 34.7545 12.2652 34.7545 12.439C34.7545 12.6128 34.6706 12.8049 34.5214 12.9421C34.3815 13.0884 34.1857 13.1707 34.0085 13.1707C33.8314 13.1707 33.6355 13.0884 33.4957 12.9421C33.3465 12.8049 33.2625 12.6128 33.2625 12.439C33.2625 12.2652 33.3465 12.0732 33.4957 11.936C33.6355 11.7896 33.8314 11.7073 34.0085 11.7073C34.1857 11.7073 34.3815 11.7896 34.5214 11.936Z" fill="#9EA3BA"/>
<path d="M14.0996 16.3262L13.8665 16.5457V22.9665L14.0996 23.186L14.3234 23.4146H22.3616L22.5854 23.186L22.8185 22.9665V16.5457L22.5854 16.3262L22.3616 16.0976H14.3234L14.0996 16.3262ZM21.3265 21.9512H15.3585V17.561H21.3265V21.9512Z" fill="#9EA3BA"/>
<path d="M14.0996 25.8384L13.8665 26.0579V32.4787L14.0996 32.6982L14.3234 32.9268H22.3616L22.5854 32.6982L22.8185 32.4787V26.0579L22.5854 25.8384L22.3616 25.6098H14.3234L14.0996 25.8384ZM21.3265 31.4634H15.3585V27.0732H21.3265V31.4634Z" fill="#9EA3BA"/>
<path d="M14.0996 35.3506C13.9504 35.4878 13.8665 35.6799 13.8665 35.8537C13.8665 36.0274 13.9504 36.2195 14.0996 36.3567L14.3234 36.5854H22.3616L22.5854 36.3567C22.7346 36.2195 22.8185 36.0274 22.8185 35.8537C22.8185 35.6799 22.7346 35.4878 22.5854 35.3506L22.3616 35.1219H14.3234L14.0996 35.3506Z" fill="#9EA3BA"/>
<path d="M14.0996 38.2774C13.9504 38.4146 13.8665 38.6067 13.8665 38.7805C13.8665 38.9543 13.9504 39.1463 14.0996 39.2835L14.3234 39.5122H22.3616L22.5854 39.2835C22.7346 39.1463 22.8185 38.9543 22.8185 38.7805C22.8185 38.6067 22.7346 38.4146 22.5854 38.2774L22.3616 38.0488H14.3234L14.0996 38.2774Z" fill="#9EA3BA"/>
<path d="M3.29193 11.7988C2.70446 11.9451 1.8652 12.439 1.4549 12.8689C1.24975 13.0884 0.942028 13.5457 0.783502 13.8842L0.485102 14.497L0.438477 38.2774L2.0517 41.0213C3.36653 43.2622 3.70223 43.7744 3.91671 43.8476C4.49486 44.0488 4.56946 43.9573 6.28526 41.0213L7.89849 38.2774L7.85187 14.4878L7.50684 13.7927C6.87274 12.5488 5.75374 11.8079 4.37363 11.7439C3.98198 11.7256 3.49708 11.7531 3.29193 11.7988ZM4.85853 13.2805C5.37141 13.4268 6.14539 14.186 6.29459 14.689C6.35986 14.8994 6.40649 15.3018 6.40649 15.5854V16.0976H1.93048V15.5854C1.93048 14.7896 2.09833 14.3689 2.62986 13.8567C3.28261 13.2073 3.98198 13.0335 4.85853 13.2805ZM6.40649 19.0244H1.93048V17.561H6.40649V19.0244ZM3.42248 34.8018L1.93048 36.2653V20.4878H3.42248V34.8018ZM6.40649 36.2653L4.91448 34.8018V20.4878H6.40649V36.2653ZM5.21289 37.1982L6.21066 38.1768L5.95889 38.6159C5.80036 38.8902 5.66049 39.0366 5.57656 39.0092C5.51129 38.9817 5.16626 38.9177 4.81191 38.8537C4.21511 38.7622 3.22666 38.8354 2.76041 39.0092C2.67648 39.0366 2.53661 38.8903 2.37808 38.625L2.1263 38.186L3.12408 37.1982C3.67426 36.6585 4.14051 36.2195 4.16848 36.2195C4.18713 36.2195 4.66271 36.6585 5.21289 37.1982ZM4.86786 40.3537C4.92381 40.3994 4.25241 41.6159 4.16848 41.6159C4.13118 41.6159 3.56236 40.6738 3.44113 40.4177C3.42248 40.3811 3.48776 40.3262 3.58101 40.2988C3.78616 40.2439 4.80258 40.2805 4.86786 40.3537Z" fill="#9EA3BA"/>
</svg>
